<svg xmlns="http://www.w3.org/2000/svg" viewBox="0 0 505.13 132.59"><defs><style>.cls-1{font-size:63.14px;}.cls-1,.cls-5,.cls-8{font-family:TWKEverett-Bold, TWK Everett;font-weight:700;}.cls-2{stroke:#fff;stroke-miterlimit:10;stroke-width:4px;}.cls-15,.cls-2,.cls-3,.cls-4{fill-rule:evenodd;}.cls-3{fill:#fff;}.cls-4,.cls-8{fill:#00eab8;}.cls-5{font-size:52.24px;}.cls-15,.cls-5{fill:#b6bab9;}.cls-6{letter-spacing:0em;}.cls-7{letter-spacing:0em;}.cls-8{font-size:59.16px;}.cls-9{letter-spacing:-0.01em;}.cls-10{letter-spacing:-0.01em;}.cls-11{letter-spacing:-0.01em;}.cls-12{letter-spacing:0em;}.cls-13{letter-spacing:-0.02em;}.cls-14{fill:#04845f;}</style></defs><g id="Capa_2" data-name="Capa 2"><g id="Capa_1-2" data-name="Capa 1"><text class="cls-1" transform="translate(124.81 66.44)">Code</text><path class="cls-2" d="M63.33,116.15c-8.09,4.31-13.67,0-13.67,0l-45-24.59a4.61,4.61,0,0,1-2.52-4.14L2,33.47a4.61,4.61,0,0,1,2.49-4.16L55,2.56a4.56,4.56,0,0,1,4.36,0l50.68,26.5a4.61,4.61,0,0,1,2.52,4.14l.13,54a4.59,4.59,0,0,1-2.49,4.15Zm4.45-93.36v2.64L91.7,37.94a4.69,4.69,0,0,1,0,8.29L67.87,58.85v2.64l30.7-16.24,0-6.37L67.78,22.79ZM46.86,61.55V58.9L22.94,46.4a4.69,4.69,0,0,1,0-8.29L46.77,25.48V22.84L16.06,39.09l0,6.36Z"/><polygon class="cls-3" points="106.5 34.69 81.63 21.8 63.07 12.17 63.11 26.36 91.67 41.17 63.18 56.13 63.22 70.31 81.73 60.59 106.53 47.58 106.5 34.69"/><polygon class="cls-4" points="52.98 25.91 52.94 11.91 33.44 21.51 7.3 34.35 7.33 47.07 33.53 59.79 53.09 69.29 53.05 55.29 22.95 40.68 52.98 25.91"/><text class="cls-5" transform="translate(127.23 116.13)"><tspan class="cls-6">S</tspan><tspan class="cls-7" x="37.25" y="0">t</tspan><tspan x="59.03" y="0">udio</tspan></text><text class="cls-8" transform="translate(300.73 68.32)">c<tspan class="cls-9" x="36.15" y="0">r</tspan><tspan class="cls-10" x="59.99" y="0">a</tspan><tspan class="cls-11" x="95.96" y="0">ft</tspan><tspan class="cls-12" x="144.17" y="0">e</tspan><tspan class="cls-13" x="180.85" y="0">r</tspan></text><polyline class="cls-14" points="7.29 47.36 53.08 70.61 53.04 55.96 7.25 34.05"/><polygon class="cls-15" points="89.33 39.3 103.46 33.12 62.06 11.65 62.09 25.17 89.33 39.3"/></g></g></svg>